solid DrawOpenerV2Print
facet normal 0.0 1.0 0.0
  outer loop
    vertex 46.75489797397001 43.01022832021804 70.514108
    vertex 96.75489797397 43.01022832021804 0.0
    vertex 46.75489797397001 43.01022832021804 0.0
  endloop
endfacet
facet normal 0.0 1.0 0.0
  outer loop
    vertex 96.75489797397 43.01022832021804 0.0
    vertex 46.75489797397001 43.01022832021804 70.514108
    vertex 96.75489797397 43.01022832021804 70.514108
  endloop
endfacet
facet normal 0.0 0.0 -1.0
  outer loop
    vertex 96.75489797397 43.01022832021804 0.0
    vertex 46.75489797397001 38.01022832021804 0.0
    vertex 46.75489797397001 43.01022832021804 0.0
  endloop
endfacet
facet normal 0.0 0.0 -1.0
  outer loop
    vertex 46.75489797397001 38.01022832021804 0.0
    vertex 96.75489797397 43.01022832021804 0.0
    vertex 96.75489797397 38.01022832021804 0.0
  endloop
endfacet
facet normal -0.9999999975519989 -6.996981211401568e-05 -4.773343318572724e-07
  outer loop
    vertex 46.7566749579276 13.027223081408941 70.50205041383386
    vertex 46.7566749579276 18.02722308140894 65.514108
    vertex 46.7566749579276 13.027223081408941 40.50205041383384
  endloop
endfacet
facet normal -0.9999999975519989 -6.996981211401568e-05 -4.773343318572724e-07
  outer loop
    vertex 46.7566749579276 18.02722308140894 65.514108
    vertex 46.7566749579276 13.027223081408941 70.50205041383386
    vertex 46.75489797397001 43.01022832021804 70.514108
  endloop
endfacet
facet normal -0.9999999975519989 -6.996981211401568e-05 -4.773343318572724e-07
  outer loop
    vertex 46.7566749579276 18.02722308140894 65.514108
    vertex 46.75489797397001 43.01022832021804 70.514108
    vertex 46.75489797397001 38.01022832021804 65.514108
  endloop
endfacet
facet normal -0.9999999975519989 -6.996981211401568e-05 -4.773343318572724e-07
  outer loop
    vertex 46.75489797397001 38.01022832021804 65.514108
    vertex 46.75489797397001 43.01022832021804 70.514108
    vertex 46.75489797397001 38.01022832021804 0.0
  endloop
endfacet
facet normal -0.9999999975519989 -6.996981211401568e-05 -4.773343318572724e-07
  outer loop
    vertex 46.75489797397001 38.01022832021804 0.0
    vertex 46.75489797397001 43.01022832021804 70.514108
    vertex 46.75489797397001 43.01022832021804 0.0
  endloop
endfacet
facet normal -0.9999999975519989 -6.996981211401568e-05 -4.773343318572724e-07
  outer loop
    vertex 46.7566749579276 18.02722308140894 40.50205041383384
    vertex 46.7566749579276 13.027223081408941 40.50205041383384
    vertex 46.7566749579276 18.02722308140894 65.514108
  endloop
endfacet
facet normal -0.0 -0.0 -1.0
  outer loop
    vertex 96.7566749579276 18.02722308140894 40.50205041383384
    vertex 46.7566749579276 13.027223081408941 40.50205041383384
    vertex 46.7566749579276 18.02722308140894 40.50205041383384
  endloop
endfacet
facet normal -0.0 -0.0 -1.0
  outer loop
    vertex 46.7566749579276 13.027223081408941 40.50205041383384
    vertex 96.7566749579276 18.02722308140894 40.50205041383384
    vertex 96.7566749579276 13.027223081408941 40.50205041383384
  endloop
endfacet
facet normal 3.300641869857301e-10 -0.00046404444324078445 0.9999998923313715
  outer loop
    vertex 46.7566749579276 13.027223081408941 70.50205041383386
    vertex 96.75489797397 43.01022832021804 70.514108
    vertex 46.75489797397001 43.01022832021804 70.514108
  endloop
endfacet
facet normal 3.300641869857301e-10 -0.00046404444324078445 0.9999998923313715
  outer loop
    vertex 96.75489797397 43.01022832021804 70.514108
    vertex 46.7566749579276 13.027223081408941 70.50205041383386
    vertex 96.7566749579276 13.027223081408941 70.50205041383386
  endloop
endfacet
facet normal 0.0 -1.0 0.0
  outer loop
    vertex 96.7566749579276 13.027223081408941 40.50205041383384
    vertex 74.32978308655215 13.027223081408941 43.558265328782554
    vertex 46.7566749579276 13.027223081408941 40.50205041383384
  endloop
endfacet
facet normal 0.0 -1.0 0.0
  outer loop
    vertex 74.32978308655215 13.027223081408941 43.558265328782554
    vertex 96.7566749579276 13.027223081408941 40.50205041383384
    vertex 96.7566749579276 13.027223081408941 70.50205041383386
  endloop
endfacet
facet normal 0.0 -1.0 0.0
  outer loop
    vertex 74.32978308655215 13.027223081408941 43.558265328782554
    vertex 96.7566749579276 13.027223081408941 70.50205041383386
    vertex 74.32978308655215 13.027223081408941 49.69142453700449
  endloop
endfacet
facet normal 0.0 -1.0 0.0
  outer loop
    vertex 74.32978308655215 13.027223081408941 49.69142453700449
    vertex 96.7566749579276 13.027223081408941 70.50205041383386
    vertex 69.32978308655214 13.027223081408941 49.69142453700449
  endloop
endfacet
facet normal 0.0 -1.0 0.0
  outer loop
    vertex 69.32978308655214 13.027223081408941 49.69142453700449
    vertex 96.7566749579276 13.027223081408941 70.50205041383386
    vertex 74.32978308655215 13.027223081408941 63.31040055911856
  endloop
endfacet
facet normal 0.0 -1.0 0.0
  outer loop
    vertex 69.32978308655214 13.027223081408941 49.69142453700449
    vertex 74.32978308655215 13.027223081408941 63.31040055911856
    vertex 69.32978308655214 13.027223081408941 63.31040055911855
  endloop
endfacet
facet normal 0.0 -1.0 0.0
  outer loop
    vertex 74.32978308655215 13.027223081408941 63.31040055911856
    vertex 96.7566749579276 13.027223081408941 70.50205041383386
    vertex 74.32978308655215 13.027223081408941 68.98332505218285
  endloop
endfacet
facet normal 0.0 -1.0 0.0
  outer loop
    vertex 74.32978308655215 13.027223081408941 68.98332505218285
    vertex 96.7566749579276 13.027223081408941 70.50205041383386
    vertex 69.32978308655214 13.027223081408941 68.98332505218285
  endloop
endfacet
facet normal 0.0 -1.0 0.0
  outer loop
    vertex 46.7566749579276 13.027223081408941 40.50205041383384
    vertex 69.32978308655214 13.027223081408941 43.558265328782554
    vertex 46.7566749579276 13.027223081408941 70.50205041383386
  endloop
endfacet
facet normal 0.0 -1.0 0.0
  outer loop
    vertex 69.32978308655214 13.027223081408941 43.558265328782554
    vertex 46.7566749579276 13.027223081408941 40.50205041383384
    vertex 74.32978308655215 13.027223081408941 43.558265328782554
  endloop
endfacet
facet normal 0.0 -1.0 0.0
  outer loop
    vertex 46.7566749579276 13.027223081408941 70.50205041383386
    vertex 69.32978308655214 13.027223081408941 43.558265328782554
    vertex 69.32978308655214 13.027223081408941 49.69142453700449
  endloop
endfacet
facet normal 0.0 -1.0 0.0
  outer loop
    vertex 46.7566749579276 13.027223081408941 70.50205041383386
    vertex 69.32978308655214 13.027223081408941 49.69142453700449
    vertex 69.32978308655214 13.027223081408941 63.31040055911855
  endloop
endfacet
facet normal 0.0 -1.0 0.0
  outer loop
    vertex 46.7566749579276 13.027223081408941 70.50205041383386
    vertex 69.32978308655214 13.027223081408941 63.31040055911855
    vertex 69.32978308655214 13.027223081408941 68.98332505218285
  endloop
endfacet
facet normal 0.0 -1.0 0.0
  outer loop
    vertex 46.7566749579276 13.027223081408941 70.50205041383386
    vertex 69.32978308655214 13.027223081408941 68.98332505218285
    vertex 96.7566749579276 13.027223081408941 70.50205041383386
  endloop
endfacet
facet normal 0.9999999981788315 6.031121892743733e-05 2.2122376852522036e-06
  outer loop
    vertex 96.75489797397 43.01022832021804 0.0
    vertex 96.75489797397 38.01022832021804 65.514108
    vertex 96.75489797397 38.01022832021804 0.0
  endloop
endfacet
facet normal 0.9999999981788315 6.031121892743733e-05 2.2122376852522036e-06
  outer loop
    vertex 96.7566749579276 18.02722308140894 40.50205041383384
    vertex 96.7566749579276 13.027223081408941 70.50205041383386
    vertex 96.7566749579276 13.027223081408941 40.50205041383384
  endloop
endfacet
facet normal 0.9999999981788315 6.031121892743733e-05 2.2122376852522036e-06
  outer loop
    vertex 96.7566749579276 13.027223081408941 70.50205041383386
    vertex 96.7566749579276 18.02722308140894 40.50205041383384
    vertex 96.75489797397 18.02722308140894 65.514108
  endloop
endfacet
facet normal 0.9999999981788315 6.031121892743733e-05 2.2122376852522036e-06
  outer loop
    vertex 96.7566749579276 13.027223081408941 70.50205041383386
    vertex 96.75489797397 18.02722308140894 65.514108
    vertex 96.75489797397 43.01022832021804 70.514108
  endloop
endfacet
facet normal 0.9999999981788315 6.031121892743733e-05 2.2122376852522036e-06
  outer loop
    vertex 96.75489797397 43.01022832021804 70.514108
    vertex 96.75489797397 18.02722308140894 65.514108
    vertex 96.75489797397 38.01022832021804 65.514108
  endloop
endfacet
facet normal 0.9999999981788315 6.031121892743733e-05 2.2122376852522036e-06
  outer loop
    vertex 96.75489797397 43.01022832021804 70.514108
    vertex 96.75489797397 38.01022832021804 65.514108
    vertex 96.75489797397 43.01022832021804 0.0
  endloop
endfacet
facet normal 4.230030636488087e-16 -0.06997814370150171 0.9975485248368081
  outer loop
    vertex 74.32978308655215 7.103331261419197 69.98598664382534
    vertex 69.32978308655214 10.680325587420151 69.76800611577066
    vertex 69.32978308655214 7.103331261419197 69.98598664382534
  endloop
endfacet
facet normal 2.161215341023507e-16 0.19059086036464806 0.9816695594473038
  outer loop
    vertex 69.32978308655214 10.680325587420151 69.76800611577066
    vertex 74.32978308655215 7.103331261419197 69.98598664382534
    vertex 74.32978308655215 10.680325587420151 69.76800611577066
  endloop
endfacet
facet normal -1.8110107468646324e-16 -0.9454462067855698 -0.3257782529187269
  outer loop
    vertex 74.32978308655214 -4.9147685331820705 51.81984906947629
    vertex 69.32978308655214 -3.3150480450073254 48.61309084993931
    vertex 74.32978308655214 -3.3150480450073254 48.61309084993931
  endloop
endfacet
facet normal -2.757141108477485e-16 -0.8289132921656217 -0.5593771125735756
  outer loop
    vertex 69.32978308655214 -3.3150480450073254 48.61309084993931
    vertex 74.32978308655214 -4.9147685331820705 51.81984906947629
    vertex 69.32978308655214 -4.9147685331820705 51.81984906947629
  endloop
endfacet
facet normal -1.0 -4.3622943670162575e-17 4.525003741790179e-16
  outer loop
    vertex 69.32978308655214 -2.298408123948826 65.29584348690713
    vertex 69.32978308655214 -1.0894146392664736 58.88744130714493
    vertex 69.32978308655214 -1.3670006843223497 56.77896596377665
  endloop
endfacet
facet normal -1.0 -4.3622943670162575e-17 4.525003741790179e-16
  outer loop
    vertex 69.32978308655214 -1.0894146392664736 58.88744130714493
    vertex 69.32978308655214 -2.298408123948826 65.29584348690713
    vertex 69.32978308655214 0.3850443297863518 67.67102492153403
  endloop
endfacet
facet normal -1.0 -4.3622943670162575e-17 4.525003741790179e-16
  outer loop
    vertex 69.32978308655214 -1.0894146392664736 58.88744130714493
    vertex 69.32978308655214 0.3850443297863518 67.67102492153403
    vertex 69.32978308655214 -0.2755735343367716 60.852227540282925
  endloop
endfacet
facet normal -1.0 -4.3622943670162575e-17 4.525003741790179e-16
  outer loop
    vertex 69.32978308655214 -0.2755735343367716 60.852227540282925
    vertex 69.32978308655214 0.3850443297863518 67.67102492153403
    vertex 69.32978308655214 1.0190607041018118 62.53942772836504
  endloop
endfacet
facet normal -1.0 -4.3622943670162575e-17 4.525003741790179e-16
  outer loop
    vertex 69.32978308655214 1.0190607041018118 62.53942772836504
    vertex 69.32978308655214 0.3850443297863518 67.67102492153403
    vertex 69.32978308655214 3.591802549323354 69.27074540970878
  endloop
endfacet
facet normal -1.0 -4.3622943670162575e-17 4.525003741790179e-16
  outer loop
    vertex 69.32978308655214 1.0190607041018118 62.53942772836504
    vertex 69.32978308655214 3.591802549323354 69.27074540970878
    vertex 69.32978308655214 2.706260892183924 63.83406196680362
  endloop
endfacet
facet normal -1.0 -4.3622943670162575e-17 4.525003741790179e-16
  outer loop
    vertex 69.32978308655214 2.706260892183924 63.83406196680362
    vertex 69.32978308655214 3.591802549323354 69.27074540970878
    vertex 69.32978308655214 4.671047125321912 64.64790307173332
  endloop
endfacet
facet normal -1.0 -4.3622943670162575e-17 4.525003741790179e-16
  outer loop
    vertex 69.32978308655214 4.671047125321912 64.64790307173332
    vertex 69.32978308655214 3.591802549323354 69.27074540970878
    vertex 69.32978308655214 7.103331261419197 69.98598664382534
  endloop
endfacet
facet normal -1.0 -4.3622943670162575e-17 4.525003741790179e-16
  outer loop
    vertex 69.32978308655214 4.671047125321912 64.64790307173332
    vertex 69.32978308655214 7.103331261419197 69.98598664382534
    vertex 69.32978308655214 6.779522468690201 64.92548911678921
  endloop
endfacet
facet normal -1.0 -4.3622943670162575e-17 4.525003741790179e-16
  outer loop
    vertex 69.32978308655214 6.779522468690201 64.92548911678921
    vertex 69.32978308655214 7.103331261419197 69.98598664382534
    vertex 69.32978308655214 8.887997812058483 64.64790307173332
  endloop
endfacet
facet normal -1.0 -4.3622943670162575e-17 4.525003741790179e-16
  outer loop
    vertex 69.32978308655214 8.887997812058483 64.64790307173332
    vertex 69.32978308655214 7.103331261419197 69.98598664382534
    vertex 69.32978308655214 10.680325587420151 69.76800611577066
  endloop
endfacet
facet normal -1.0 -4.3622943670162575e-17 4.525003741790179e-16
  outer loop
    vertex 69.32978308655214 8.887997812058483 64.64790307173332
    vertex 69.32978308655214 10.680325587420151 69.76800611577066
    vertex 69.32978308655214 10.852784045196474 63.834061966803624
  endloop
endfacet
facet normal -1.0 -4.3622943670162575e-17 4.525003741790179e-16
  outer loop
    vertex 69.32978308655214 10.852784045196474 63.834061966803624
    vertex 69.32978308655214 10.680325587420151 69.76800611577066
    vertex 69.32978308655214 13.027223081408941 68.98332505218285
  endloop
endfacet
facet normal -1.0 -4.3622943670162575e-17 4.525003741790179e-16
  outer loop
    vertex 69.32978308655214 10.852784045196474 63.834061966803624
    vertex 69.32978308655214 13.027223081408941 68.98332505218285
    vertex 69.32978308655214 13.027223081408941 63.31040055911855
  endloop
endfacet
facet normal -1.0 -4.3622943670162575e-17 4.525003741790179e-16
  outer loop
    vertex 69.32978308655214 -5.412029239243889 58.90837210757321
    vertex 69.32978308655214 -4.9147685331820705 51.81984906947629
    vertex 69.32978308655214 -5.630009767298598 55.33137778157222
  endloop
endfacet
facet normal -1.0 -4.3622943670162575e-17 4.525003741790179e-16
  outer loop
    vertex 69.32978308655214 -4.9147685331820705 51.81984906947629
    vertex 69.32978308655214 -5.412029239243889 58.90837210757321
    vertex 69.32978308655214 -4.27568196177502 62.307065795424876
  endloop
endfacet
facet normal -1.0 -4.3622943670162575e-17 4.525003741790179e-16
  outer loop
    vertex 69.32978308655214 -4.9147685331820705 51.81984906947629
    vertex 69.32978308655214 -4.27568196177502 62.307065795424876
    vertex 69.32978308655214 -3.3150480450073254 48.61309084993931
  endloop
endfacet
facet normal -1.0 -4.3622943670162575e-17 4.525003741790179e-16
  outer loop
    vertex 69.32978308655214 -3.3150480450073254 48.61309084993931
    vertex 69.32978308655214 -4.27568196177502 62.307065795424876
    vertex 69.32978308655214 -2.298408123948826 65.29584348690713
  endloop
endfacet
facet normal -1.0 -4.3622943670162575e-17 4.525003741790179e-16
  outer loop
    vertex 69.32978308655214 -3.3150480450073254 48.61309084993931
    vertex 69.32978308655214 -2.298408123948826 65.29584348690713
    vertex 69.32978308655214 -0.9398666103803583 45.92963839620415
  endloop
endfacet
facet normal -1.0 -4.3622943670162575e-17 4.525003741790179e-16
  outer loop
    vertex 69.32978308655214 -0.9398666103803583 45.92963839620415
    vertex 69.32978308655214 -2.298408123948826 65.29584348690713
    vertex 69.32978308655214 -1.3670006843223497 56.77896596377665
  endloop
endfacet
facet normal -1.0 -4.3622943670162575e-17 4.525003741790179e-16
  outer loop
    vertex 69.32978308655214 -0.9398666103803583 45.92963839620415
    vertex 69.32978308655214 -1.3670006843223497 56.77896596377665
    vertex 69.32978308655214 -1.0894146392664708 54.67049062040836
  endloop
endfacet
facet normal -1.0 -4.3622943670162575e-17 4.525003741790179e-16
  outer loop
    vertex 69.32978308655214 -0.9398666103803583 45.92963839620415
    vertex 69.32978308655214 -1.0894146392664708 54.67049062040836
    vertex 69.32978308655214 -0.2755735343367688 52.70570438727037
  endloop
endfacet
facet normal -1.0 -4.3622943670162575e-17 4.525003741790179e-16
  outer loop
    vertex 69.32978308655214 -0.9398666103803583 45.92963839620415
    vertex 69.32978308655214 -0.2755735343367688 52.70570438727037
    vertex 69.32978308655214 2.048911081101919 43.95236455837793
  endloop
endfacet
facet normal -1.0 -4.3622943670162575e-17 4.525003741790179e-16
  outer loop
    vertex 69.32978308655214 2.048911081101919 43.95236455837793
    vertex 69.32978308655214 -0.2755735343367688 52.70570438727037
    vertex 69.32978308655214 1.0190607041018147 51.01850419918826
  endloop
endfacet
facet normal -1.0 -4.3622943670162575e-17 4.525003741790179e-16
  outer loop
    vertex 69.32978308655214 2.048911081101919 43.95236455837793
    vertex 69.32978308655214 1.0190607041018147 51.01850419918826
    vertex 69.32978308655214 2.7062608921839297 49.723869960749674
  endloop
endfacet
facet normal -1.0 -4.3622943670162575e-17 4.525003741790179e-16
  outer loop
    vertex 69.32978308655214 2.048911081101919 43.95236455837793
    vertex 69.32978308655214 2.7062608921839297 49.723869960749674
    vertex 69.32978308655213 5.447604768953644 42.81601728090911
  endloop
endfacet
facet normal -1.0 -4.3622943670162575e-17 4.525003741790179e-16
  outer loop
    vertex 69.32978308655213 5.447604768953644 42.81601728090911
    vertex 69.32978308655214 2.7062608921839297 49.723869960749674
    vertex 69.32978308655214 4.671047125321919 48.910028855819974
  endloop
endfacet
facet normal -1.0 -4.3622943670162575e-17 4.525003741790179e-16
  outer loop
    vertex 69.32978308655213 5.447604768953644 42.81601728090911
    vertex 69.32978308655214 4.671047125321919 48.910028855819974
    vertex 69.32978308655214 6.779522468690203 48.6324428107641
  endloop
endfacet
facet normal -1.0 -4.3622943670162575e-17 4.525003741790179e-16
  outer loop
    vertex 69.32978308655213 5.447604768953644 42.81601728090911
    vertex 69.32978308655214 6.779522468690203 48.6324428107641
    vertex 69.32978308655213 9.024599094954597 42.59803675285437
  endloop
endfacet
facet normal -1.0 -4.3622943670162575e-17 4.525003741790179e-16
  outer loop
    vertex 69.32978308655213 9.024599094954597 42.59803675285437
    vertex 69.32978308655214 6.779522468690203 48.6324428107641
    vertex 69.32978308655214 8.887997812058488 48.91002885581998
  endloop
endfacet
facet normal -1.0 -4.3622943670162575e-17 4.525003741790179e-16
  outer loop
    vertex 69.32978308655213 9.024599094954597 42.59803675285437
    vertex 69.32978308655214 8.887997812058488 48.91002885581998
    vertex 69.32978308655214 13.027223081408941 49.69142453700449
  endloop
endfacet
facet normal -1.0 -4.3622943670162575e-17 4.525003741790179e-16
  outer loop
    vertex 69.32978308655213 9.024599094954597 42.59803675285437
    vertex 69.32978308655214 13.027223081408941 49.69142453700449
    vertex 69.32978308655214 12.536127807050438 43.313277986970874
  endloop
endfacet
facet normal -1.0 -4.3622943670162575e-17 4.525003741790179e-16
  outer loop
    vertex 69.32978308655214 12.536127807050438 43.313277986970874
    vertex 69.32978308655214 13.027223081408941 49.69142453700449
    vertex 69.32978308655214 13.027223081408941 43.558265328782554
  endloop
endfacet
facet normal -4.0340454878300326e-16 -0.4381714122632282 -0.8988914358671176
  outer loop
    vertex 74.32978308655214 2.048911081101919 43.95236455837793
    vertex 69.32978308655214 -0.9398666103803583 45.92963839620415
    vertex 69.32978308655214 2.048911081101919 43.95236455837793
  endloop
endfacet
facet normal -3.515376859938696e-16 -0.655891306528572 -0.7548553464209172
  outer loop
    vertex 69.32978308655214 -0.9398666103803583 45.92963839620415
    vertex 74.32978308655214 2.048911081101919 43.95236455837793
    vertex 74.32978308655214 -0.9398666103803583 45.92963839620415
  endloop
endfacet
facet normal -4.277800582301113e-16 -0.19059086036464884 -0.9816695594473036
  outer loop
    vertex 74.32978308655213 5.447604768953644 42.81601728090911
    vertex 69.32978308655214 2.048911081101919 43.95236455837793
    vertex 69.32978308655213 5.447604768953644 42.81601728090911
  endloop
endfacet
facet normal -4.034045487830032e-16 -0.438171412263228 -0.8988914358671176
  outer loop
    vertex 69.32978308655214 2.048911081101919 43.95236455837793
    vertex 74.32978308655213 5.447604768953644 42.81601728090911
    vertex 74.32978308655214 2.048911081101919 43.95236455837793
  endloop
endfacet
facet normal -4.2300306364880986e-16 0.06997814370148564 -0.9975485248368093
  outer loop
    vertex 74.32978308655213 9.024599094954597 42.59803675285437
    vertex 69.32978308655213 5.447604768953644 42.81601728090911
    vertex 69.32978308655213 9.024599094954597 42.59803675285437
  endloop
endfacet
facet normal -4.2778005823011124e-16 -0.1905908603646486 -0.9816695594473036
  outer loop
    vertex 69.32978308655213 5.447604768953644 42.81601728090911
    vertex 74.32978308655213 9.024599094954597 42.59803675285437
    vertex 74.32978308655213 5.447604768953644 42.81601728090911
  endloop
endfacet
facet normal -4.240818939194107e-16 -0.25881904510252035 -0.9659258262890685
  outer loop
    vertex 74.32978308655215 8.887997812058483 64.64790307173332
    vertex 69.32978308655214 6.779522468690201 64.92548911678921
    vertex 69.32978308655214 8.887997812058483 64.64790307173332
  endloop
endfacet
facet normal -4.2715470255049227e-16 -2.0495552759987886e-16 -1.0
  outer loop
    vertex 69.32978308655214 6.779522468690201 64.92548911678921
    vertex 74.32978308655215 8.887997812058483 64.64790307173332
    vertex 74.32978308655215 6.779522468690201 64.92548911678921
  endloop
endfacet
facet normal -6.770386138010556e-17 0.9659258262890684 -0.2588190451025203
  outer loop
    vertex 69.32978308655214 -1.0894146392664736 58.88744130714493
    vertex 74.32978308655215 -1.3670006843223497 56.77896596377665
    vertex 69.32978308655214 -1.3670006843223497 56.77896596377665
  endloop
endfacet
facet normal 4.4363562582951313e-17 1.0 3.029777364519948e-16
  outer loop
    vertex 74.32978308655215 -1.3670006843223497 56.77896596377665
    vertex 69.32978308655214 -1.0894146392664736 58.88744130714493
    vertex 74.32978308655215 -1.0894146392664736 58.88744130714493
  endloop
endfacet
facet normal 4.37414913713432e-18 -0.18550179547741794 0.9826439252723513
  outer loop
    vertex 69.32978308655214 8.887997812058488 48.91002885581998
    vertex 74.32978308655215 13.027223081408941 49.69142453700449
    vertex 69.32978308655214 13.027223081408941 49.69142453700449
  endloop
endfacet
facet normal 4.37414913713432e-18 -0.18550179547741794 0.9826439252723513
  outer loop
    vertex 74.32978308655215 13.027223081408941 49.69142453700449
    vertex 69.32978308655214 8.887997812058488 48.91002885581998
    vertex 74.32978308655215 8.887997812058488 48.91002885581998
  endloop
endfacet
facet normal -3.4774504246323626e-16 0.49999999999999967 -0.8660254037844389
  outer loop
    vertex 74.32978308655215 2.706260892183924 63.83406196680362
    vertex 69.32978308655214 1.0190607041018118 62.53942772836504
    vertex 69.32978308655214 2.706260892183924 63.83406196680362
  endloop
endfacet
facet normal -2.706742108491775e-16 0.7071067811865468 -0.7071067811865485
  outer loop
    vertex 69.32978308655214 1.0190607041018118 62.53942772836504
    vertex 74.32978308655215 2.706260892183924 63.83406196680362
    vertex 74.32978308655215 1.0190607041018118 62.53942772836504
  endloop
endfacet
facet normal 4.2408189391941063e-16 0.25881904510252024 0.9659258262890684
  outer loop
    vertex 74.32978308655215 4.671047125321919 48.910028855819974
    vertex 69.32978308655214 6.779522468690203 48.6324428107641
    vertex 69.32978308655214 4.671047125321919 48.910028855819974
  endloop
endfacet
facet normal 4.27154702550492e-16 -1.229733165599273e-15 1.0
  outer loop
    vertex 69.32978308655214 6.779522468690203 48.6324428107641
    vertex 74.32978308655215 4.671047125321919 48.910028855819974
    vertex 74.32978308655215 6.779522468690203 48.6324428107641
  endloop
endfacet
facet normal -2.0719446022817807e-16 0.32577825291873 -0.9454462067855687
  outer loop
    vertex 69.32978308655214 12.536127807050438 43.313277986970874
    vertex 74.32978308655213 9.024599094954597 42.59803675285437
    vertex 69.32978308655213 9.024599094954597 42.59803675285437
  endloop
endfacet
facet normal -4.2300306364880986e-16 0.06997814370148564 -0.9975485248368093
  outer loop
    vertex 74.32978308655213 9.024599094954597 42.59803675285437
    vertex 69.32978308655214 12.536127807050438 43.313277986970874
    vertex 74.32978308655214 12.536127807050438 43.313277986970874
  endloop
endfacet
facet normal -4.2715470255049227e-16 -2.0495552759987886e-16 -1.0
  outer loop
    vertex 74.32978308655215 6.779522468690201 64.92548911678921
    vertex 69.32978308655214 4.671047125321912 64.64790307173332
    vertex 69.32978308655214 6.779522468690201 64.92548911678921
  endloop
endfacet
facet normal -4.011176241092797e-16 0.2588190451025227 -0.9659258262890679
  outer loop
    vertex 69.32978308655214 4.671047125321912 64.64790307173332
    vertex 74.32978308655215 6.779522468690201 64.92548911678921
    vertex 74.32978308655215 4.671047125321912 64.64790307173332
  endloop
endfacet
facet normal 4.4363562582951313e-17 1.0 3.029777364519948e-16
  outer loop
    vertex 69.32978308655214 -1.3670006843223497 56.77896596377665
    vertex 74.32978308655215 -1.0894146392664708 54.67049062040836
    vertex 69.32978308655214 -1.0894146392664708 54.67049062040836
  endloop
endfacet
facet normal 1.5340768307023393e-16 0.9659258262890682 0.2588190451025216
  outer loop
    vertex 74.32978308655215 -1.0894146392664708 54.67049062040836
    vertex 69.32978308655214 -1.3670006843223497 56.77896596377665
    vertex 74.32978308655215 -1.3670006843223497 56.77896596377665
  endloop
endfacet
facet normal -7.414629956897405e-17 -0.997548524836809 -0.06997814370149018
  outer loop
    vertex 74.32978308655215 -5.630009767298598 55.33137778157222
    vertex 69.32978308655214 -4.9147685331820705 51.81984906947629
    vertex 74.32978308655214 -4.9147685331820705 51.81984906947629
  endloop
endfacet
facet normal -1.811010746864633e-16 -0.9454462067855696 -0.32577825291872714
  outer loop
    vertex 69.32978308655214 -4.9147685331820705 51.81984906947629
    vertex 74.32978308655215 -5.630009767298598 55.33137778157222
    vertex 69.32978308655214 -5.630009767298598 55.33137778157222
  endloop
endfacet
facet normal 3.9210860504618734e-16 0.5 0.8660254037844387
  outer loop
    vertex 74.32978308655215 2.7062608921839297 49.723869960749674
    vertex 69.32978308655214 4.671047125321919 48.910028855819974
    vertex 69.32978308655214 2.7062608921839297 49.723869960749674
  endloop
endfacet
facet normal 4.2408189391941063e-16 0.25881904510252024 0.9659258262890684
  outer loop
    vertex 69.32978308655214 4.671047125321919 48.910028855819974
    vertex 74.32978308655215 2.7062608921839297 49.723869960749674
    vertex 74.32978308655215 4.671047125321919 48.910028855819974
  endloop
endfacet
facet normal 2.4667898354364896e-16 -0.7548553464209119 0.655891306528578
  outer loop
    vertex 74.32978308655214 -2.298408123948826 65.29584348690713
    vertex 69.32978308655214 0.3850443297863518 67.67102492153403
    vertex 69.32978308655214 -2.298408123948826 65.29584348690713
  endloop
endfacet
facet normal 3.292582492140298e-16 -0.5593771125735673 0.8289132921656275
  outer loop
    vertex 69.32978308655214 0.3850443297863518 67.67102492153403
    vertex 74.32978308655214 -2.298408123948826 65.29584348690713
    vertex 74.32978308655215 0.3850443297863518 67.67102492153403
  endloop
endfacet
facet normal 2.4667898354364896e-16 -0.7548553464209119 0.655891306528578
  outer loop
    vertex 74.32978308655214 -2.298408123948826 65.29584348690713
    vertex 69.32978308655214 -4.27568196177502 62.307065795424876
    vertex 74.32978308655214 -4.27568196177502 62.307065795424876
  endloop
endfacet
facet normal 1.472889528010615e-16 -0.8988914358671143 0.43817141226323475
  outer loop
    vertex 69.32978308655214 -4.27568196177502 62.307065795424876
    vertex 74.32978308655214 -2.298408123948826 65.29584348690713
    vertex 69.32978308655214 -2.298408123948826 65.29584348690713
  endloop
endfacet
facet normal 1.472889528010614e-16 -0.8988914358671144 0.43817141226323447
  outer loop
    vertex 74.32978308655214 -4.27568196177502 62.307065795424876
    vertex 69.32978308655214 -5.412029239243889 58.90837210757321
    vertex 74.32978308655215 -5.412029239243889 58.90837210757321
  endloop
endfacet
facet normal 3.7861423331587205e-17 -0.9816695594473027 0.19059086036465303
  outer loop
    vertex 69.32978308655214 -5.412029239243889 58.90837210757321
    vertex 74.32978308655214 -4.27568196177502 62.307065795424876
    vertex 69.32978308655214 -4.27568196177502 62.307065795424876
  endloop
endfacet
facet normal -2.706742108491775e-16 0.7071067811865468 -0.7071067811865485
  outer loop
    vertex 69.32978308655214 1.0190607041018118 62.53942772836504
    vertex 74.32978308655215 -0.2755735343367716 60.852227540282925
    vertex 69.32978308655214 -0.2755735343367716 60.852227540282925
  endloop
endfacet
facet normal -1.7515737907602936e-16 0.8660254037844389 -0.4999999999999995
  outer loop
    vertex 74.32978308655215 -0.2755735343367716 60.852227540282925
    vertex 69.32978308655214 1.0190607041018118 62.53942772836504
    vertex 74.32978308655215 1.0190607041018118 62.53942772836504
  endloop
endfacet
facet normal -1.7515737907602936e-16 0.8660254037844389 -0.4999999999999995
  outer loop
    vertex 69.32978308655214 -0.2755735343367716 60.852227540282925
    vertex 74.32978308655215 -1.0894146392664736 58.88744130714493
    vertex 69.32978308655214 -1.0894146392664736 58.88744130714493
  endloop
endfacet
facet normal -6.770386138010556e-17 0.9659258262890684 -0.2588190451025203
  outer loop
    vertex 74.32978308655215 -1.0894146392664736 58.88744130714493
    vertex 69.32978308655214 -0.2755735343367716 60.852227540282925
    vertex 74.32978308655215 -0.2755735343367716 60.852227540282925
  endloop
endfacet
facet normal 3.7861423331587094e-17 -0.9816695594473028 0.19059086036465273
  outer loop
    vertex 74.32978308655215 -5.412029239243889 58.90837210757321
    vertex 69.32978308655214 -5.630009767298598 55.33137778157222
    vertex 74.32978308655215 -5.630009767298598 55.33137778157222
  endloop
endfacet
facet normal -7.414629956897416e-17 -0.9975485248368091 -0.06997814370149046
  outer loop
    vertex 69.32978308655214 -5.630009767298598 55.33137778157222
    vertex 74.32978308655215 -5.412029239243889 58.90837210757321
    vertex 69.32978308655214 -5.412029239243889 58.90837210757321
  endloop
endfacet
facet normal 1.0 -2.1971432728276063e-16 -4.2344342084114346e-16
  outer loop
    vertex 74.32978308655214 -4.9147685331820705 51.81984906947629
    vertex 74.32978308655215 -5.412029239243889 58.90837210757321
    vertex 74.32978308655215 -5.630009767298598 55.33137778157222
  endloop
endfacet
facet normal 1.0 -2.1971432728276063e-16 -4.2344342084114346e-16
  outer loop
    vertex 74.32978308655215 -5.412029239243889 58.90837210757321
    vertex 74.32978308655214 -4.9147685331820705 51.81984906947629
    vertex 74.32978308655214 -4.27568196177502 62.307065795424876
  endloop
endfacet
facet normal 1.0 -2.1971432728276063e-16 -4.2344342084114346e-16
  outer loop
    vertex 74.32978308655214 -4.27568196177502 62.307065795424876
    vertex 74.32978308655214 -4.9147685331820705 51.81984906947629
    vertex 74.32978308655214 -3.3150480450073254 48.61309084993931
  endloop
endfacet
facet normal 1.0 -2.1971432728276063e-16 -4.2344342084114346e-16
  outer loop
    vertex 74.32978308655214 -4.27568196177502 62.307065795424876
    vertex 74.32978308655214 -3.3150480450073254 48.61309084993931
    vertex 74.32978308655214 -2.298408123948826 65.29584348690713
  endloop
endfacet
facet normal 1.0 -2.1971432728276063e-16 -4.2344342084114346e-16
  outer loop
    vertex 74.32978308655214 -2.298408123948826 65.29584348690713
    vertex 74.32978308655214 -3.3150480450073254 48.61309084993931
    vertex 74.32978308655214 -0.9398666103803583 45.92963839620415
  endloop
endfacet
facet normal 1.0 -2.1971432728276063e-16 -4.2344342084114346e-16
  outer loop
    vertex 74.32978308655214 -2.298408123948826 65.29584348690713
    vertex 74.32978308655214 -0.9398666103803583 45.92963839620415
    vertex 74.32978308655215 -1.3670006843223497 56.77896596377665
  endloop
endfacet
facet normal 1.0 -2.1971432728276063e-16 -4.2344342084114346e-16
  outer loop
    vertex 74.32978308655215 -1.3670006843223497 56.77896596377665
    vertex 74.32978308655214 -0.9398666103803583 45.92963839620415
    vertex 74.32978308655215 -1.0894146392664708 54.67049062040836
  endloop
endfacet
facet normal 1.0 -2.1971432728276063e-16 -4.2344342084114346e-16
  outer loop
    vertex 74.32978308655215 -1.0894146392664708 54.67049062040836
    vertex 74.32978308655214 -0.9398666103803583 45.92963839620415
    vertex 74.32978308655215 -0.2755735343367688 52.70570438727037
  endloop
endfacet
facet normal 1.0 -2.1971432728276063e-16 -4.2344342084114346e-16
  outer loop
    vertex 74.32978308655215 -0.2755735343367688 52.70570438727037
    vertex 74.32978308655214 -0.9398666103803583 45.92963839620415
    vertex 74.32978308655214 2.048911081101919 43.95236455837793
  endloop
endfacet
facet normal 1.0 -2.1971432728276063e-16 -4.2344342084114346e-16
  outer loop
    vertex 74.32978308655215 -0.2755735343367688 52.70570438727037
    vertex 74.32978308655214 2.048911081101919 43.95236455837793
    vertex 74.32978308655215 1.0190607041018147 51.01850419918826
  endloop
endfacet
facet normal 1.0 -2.1971432728276063e-16 -4.2344342084114346e-16
  outer loop
    vertex 74.32978308655215 1.0190607041018147 51.01850419918826
    vertex 74.32978308655214 2.048911081101919 43.95236455837793
    vertex 74.32978308655215 2.7062608921839297 49.723869960749674
  endloop
endfacet
facet normal 1.0 -2.1971432728276063e-16 -4.2344342084114346e-16
  outer loop
    vertex 74.32978308655215 2.7062608921839297 49.723869960749674
    vertex 74.32978308655214 2.048911081101919 43.95236455837793
    vertex 74.32978308655213 5.447604768953644 42.81601728090911
  endloop
endfacet
facet normal 1.0 -2.1971432728276063e-16 -4.2344342084114346e-16
  outer loop
    vertex 74.32978308655215 2.7062608921839297 49.723869960749674
    vertex 74.32978308655213 5.447604768953644 42.81601728090911
    vertex 74.32978308655215 4.671047125321919 48.910028855819974
  endloop
endfacet
facet normal 1.0 -2.1971432728276063e-16 -4.2344342084114346e-16
  outer loop
    vertex 74.32978308655215 4.671047125321919 48.910028855819974
    vertex 74.32978308655213 5.447604768953644 42.81601728090911
    vertex 74.32978308655215 6.779522468690203 48.6324428107641
  endloop
endfacet
facet normal 1.0 -2.1971432728276063e-16 -4.2344342084114346e-16
  outer loop
    vertex 74.32978308655215 6.779522468690203 48.6324428107641
    vertex 74.32978308655213 5.447604768953644 42.81601728090911
    vertex 74.32978308655213 9.024599094954597 42.59803675285437
  endloop
endfacet
facet normal 1.0 -2.1971432728276063e-16 -4.2344342084114346e-16
  outer loop
    vertex 74.32978308655215 6.779522468690203 48.6324428107641
    vertex 74.32978308655213 9.024599094954597 42.59803675285437
    vertex 74.32978308655215 8.887997812058488 48.91002885581998
  endloop
endfacet
facet normal 1.0 -2.1971432728276063e-16 -4.2344342084114346e-16
  outer loop
    vertex 74.32978308655215 8.887997812058488 48.91002885581998
    vertex 74.32978308655213 9.024599094954597 42.59803675285437
    vertex 74.32978308655215 13.027223081408941 49.69142453700449
  endloop
endfacet
facet normal 1.0 -2.1971432728276063e-16 -4.2344342084114346e-16
  outer loop
    vertex 74.32978308655215 13.027223081408941 49.69142453700449
    vertex 74.32978308655213 9.024599094954597 42.59803675285437
    vertex 74.32978308655214 12.536127807050438 43.313277986970874
  endloop
endfacet
facet normal 1.0 -2.1971432728276063e-16 -4.2344342084114346e-16
  outer loop
    vertex 74.32978308655215 13.027223081408941 49.69142453700449
    vertex 74.32978308655214 12.536127807050438 43.313277986970874
    vertex 74.32978308655215 13.027223081408941 43.558265328782554
  endloop
endfacet
facet normal 1.0 -2.1971432728276063e-16 -4.2344342084114346e-16
  outer loop
    vertex 74.32978308655214 -2.298408123948826 65.29584348690713
    vertex 74.32978308655215 -1.0894146392664736 58.88744130714493
    vertex 74.32978308655215 0.3850443297863518 67.67102492153403
  endloop
endfacet
facet normal 1.0 -2.1971432728276063e-16 -4.2344342084114346e-16
  outer loop
    vertex 74.32978308655215 -1.0894146392664736 58.88744130714493
    vertex 74.32978308655214 -2.298408123948826 65.29584348690713
    vertex 74.32978308655215 -1.3670006843223497 56.77896596377665
  endloop
endfacet
facet normal 1.0 -2.1971432728276063e-16 -4.2344342084114346e-16
  outer loop
    vertex 74.32978308655215 0.3850443297863518 67.67102492153403
    vertex 74.32978308655215 -1.0894146392664736 58.88744130714493
    vertex 74.32978308655215 -0.2755735343367716 60.852227540282925
  endloop
endfacet
facet normal 1.0 -2.1971432728276063e-16 -4.2344342084114346e-16
  outer loop
    vertex 74.32978308655215 0.3850443297863518 67.67102492153403
    vertex 74.32978308655215 -0.2755735343367716 60.852227540282925
    vertex 74.32978308655215 1.0190607041018118 62.53942772836504
  endloop
endfacet
facet normal 1.0 -2.1971432728276063e-16 -4.2344342084114346e-16
  outer loop
    vertex 74.32978308655215 0.3850443297863518 67.67102492153403
    vertex 74.32978308655215 1.0190607041018118 62.53942772836504
    vertex 74.32978308655215 3.591802549323354 69.27074540970878
  endloop
endfacet
facet normal 1.0 -2.1971432728276063e-16 -4.2344342084114346e-16
  outer loop
    vertex 74.32978308655215 3.591802549323354 69.27074540970878
    vertex 74.32978308655215 1.0190607041018118 62.53942772836504
    vertex 74.32978308655215 2.706260892183924 63.83406196680362
  endloop
endfacet
facet normal 1.0 -2.1971432728276063e-16 -4.2344342084114346e-16
  outer loop
    vertex 74.32978308655215 3.591802549323354 69.27074540970878
    vertex 74.32978308655215 2.706260892183924 63.83406196680362
    vertex 74.32978308655215 4.671047125321912 64.64790307173332
  endloop
endfacet
facet normal 1.0 -2.1971432728276063e-16 -4.2344342084114346e-16
  outer loop
    vertex 74.32978308655215 3.591802549323354 69.27074540970878
    vertex 74.32978308655215 4.671047125321912 64.64790307173332
    vertex 74.32978308655215 7.103331261419197 69.98598664382534
  endloop
endfacet
facet normal 1.0 -2.1971432728276063e-16 -4.2344342084114346e-16
  outer loop
    vertex 74.32978308655215 7.103331261419197 69.98598664382534
    vertex 74.32978308655215 4.671047125321912 64.64790307173332
    vertex 74.32978308655215 6.779522468690201 64.92548911678921
  endloop
endfacet
facet normal 1.0 -2.1971432728276063e-16 -4.2344342084114346e-16
  outer loop
    vertex 74.32978308655215 7.103331261419197 69.98598664382534
    vertex 74.32978308655215 6.779522468690201 64.92548911678921
    vertex 74.32978308655215 8.887997812058483 64.64790307173332
  endloop
endfacet
facet normal 1.0 -2.1971432728276063e-16 -4.2344342084114346e-16
  outer loop
    vertex 74.32978308655215 7.103331261419197 69.98598664382534
    vertex 74.32978308655215 8.887997812058483 64.64790307173332
    vertex 74.32978308655215 10.680325587420151 69.76800611577066
  endloop
endfacet
facet normal 1.0 -2.1971432728276063e-16 -4.2344342084114346e-16
  outer loop
    vertex 74.32978308655215 10.680325587420151 69.76800611577066
    vertex 74.32978308655215 8.887997812058483 64.64790307173332
    vertex 74.32978308655215 10.852784045196474 63.834061966803624
  endloop
endfacet
facet normal 1.0 -2.1971432728276063e-16 -4.2344342084114346e-16
  outer loop
    vertex 74.32978308655215 10.680325587420151 69.76800611577066
    vertex 74.32978308655215 10.852784045196474 63.834061966803624
    vertex 74.32978308655215 13.027223081408941 68.98332505218285
  endloop
endfacet
facet normal 1.0 -2.1971432728276063e-16 -4.2344342084114346e-16
  outer loop
    vertex 74.32978308655215 13.027223081408941 68.98332505218285
    vertex 74.32978308655215 10.852784045196474 63.834061966803624
    vertex 74.32978308655215 13.027223081408941 63.31040055911856
  endloop
endfacet
facet normal 3.2925824921402985e-16 -0.5593771125735669 0.8289132921656276
  outer loop
    vertex 74.32978308655215 0.3850443297863518 67.67102492153403
    vertex 69.32978308655214 3.591802549323354 69.27074540970878
    vertex 69.32978308655214 0.3850443297863518 67.67102492153403
  endloop
endfacet
facet normal 3.8939910932545524e-16 -0.3257782529187341 0.9454462067855671
  outer loop
    vertex 69.32978308655214 3.591802549323354 69.27074540970878
    vertex 74.32978308655215 0.3850443297863518 67.67102492153403
    vertex 74.32978308655215 3.591802549323354 69.27074540970878
  endloop
endfacet
facet normal 3.8939910932545524e-16 -0.3257782529187341 0.9454462067855671
  outer loop
    vertex 74.32978308655215 3.591802549323354 69.27074540970878
    vertex 69.32978308655214 7.103331261419197 69.98598664382534
    vertex 69.32978308655214 3.591802549323354 69.27074540970878
  endloop
endfacet
facet normal 4.230030636488087e-16 -0.06997814370150171 0.9975485248368081
  outer loop
    vertex 69.32978308655214 7.103331261419197 69.98598664382534
    vertex 74.32978308655215 3.591802549323354 69.27074540970878
    vertex 74.32978308655215 7.103331261419197 69.98598664382534
  endloop
endfacet
facet normal -2.757141108477485e-16 -0.8289132921656217 -0.5593771125735756
  outer loop
    vertex 74.32978308655214 -3.3150480450073254 48.61309084993931
    vertex 69.32978308655214 -0.9398666103803583 45.92963839620415
    vertex 74.32978308655214 -0.9398666103803583 45.92963839620415
  endloop
endfacet
facet normal -3.515376859938696e-16 -0.655891306528572 -0.7548553464209172
  outer loop
    vertex 69.32978308655214 -0.9398666103803583 45.92963839620415
    vertex 74.32978308655214 -3.3150480450073254 48.61309084993931
    vertex 69.32978308655214 -3.3150480450073254 48.61309084993931
  endloop
endfacet
facet normal -4.11616687303534e-16 -0.38268343236508684 -0.9238795325112881
  outer loop
    vertex 74.32978308655215 10.852784045196474 63.834061966803624
    vertex 69.32978308655214 8.887997812058483 64.64790307173332
    vertex 69.32978308655214 10.852784045196474 63.834061966803624
  endloop
endfacet
facet normal -4.240818939194107e-16 -0.25881904510252035 -0.9659258262890685
  outer loop
    vertex 69.32978308655214 8.887997812058483 64.64790307173332
    vertex 74.32978308655215 10.852784045196474 63.834061966803624
    vertex 74.32978308655215 8.887997812058483 64.64790307173332
  endloop
endfacet
facet normal 1.0989471665216704e-15 -0.23413216635312764 -0.9722047771322622
  outer loop
    vertex 74.32978308655215 13.027223081408941 63.31040055911856
    vertex 69.32978308655214 10.852784045196474 63.834061966803624
    vertex 69.32978308655214 13.027223081408941 63.31040055911855
  endloop
endfacet
facet normal 1.0989471665216704e-15 -0.23413216635312764 -0.9722047771322622
  outer loop
    vertex 69.32978308655214 10.852784045196474 63.834061966803624
    vertex 74.32978308655215 13.027223081408941 63.31040055911856
    vertex 74.32978308655215 10.852784045196474 63.834061966803624
  endloop
endfacet
facet normal 4.27154702550492e-16 -1.229733165599273e-15 1.0
  outer loop
    vertex 74.32978308655215 6.779522468690203 48.6324428107641
    vertex 69.32978308655214 8.887997812058488 48.91002885581998
    vertex 69.32978308655214 6.779522468690203 48.6324428107641
  endloop
endfacet
facet normal 4.1770972795807515e-16 -0.13052619222005374 0.9914448613738103
  outer loop
    vertex 69.32978308655214 8.887997812058488 48.91002885581998
    vertex 74.32978308655215 6.779522468690203 48.6324428107641
    vertex 74.32978308655215 8.887997812058488 48.91002885581998
  endloop
endfacet
facet normal 3.334137627291741e-16 0.7071067811865479 0.7071067811865471
  outer loop
    vertex 74.32978308655215 1.0190607041018147 51.01850419918826
    vertex 69.32978308655214 2.7062608921839297 49.723869960749674
    vertex 69.32978308655214 1.0190607041018147 51.01850419918826
  endloop
endfacet
facet normal 3.9210860504618734e-16 0.5 0.8660254037844387
  outer loop
    vertex 69.32978308655214 2.7062608921839297 49.723869960749674
    vertex 74.32978308655215 1.0190607041018147 51.01850419918826
    vertex 74.32978308655215 2.7062608921839297 49.723869960749674
  endloop
endfacet
facet normal 2.519973234744627e-16 0.8660254037844386 0.5000000000000003
  outer loop
    vertex 69.32978308655214 -0.2755735343367688 52.70570438727037
    vertex 74.32978308655215 1.0190607041018147 51.01850419918826
    vertex 69.32978308655214 1.0190607041018147 51.01850419918826
  endloop
endfacet
facet normal 3.334137627291741e-16 0.7071067811865479 0.7071067811865471
  outer loop
    vertex 74.32978308655215 1.0190607041018147 51.01850419918826
    vertex 69.32978308655214 -0.2755735343367688 52.70570438727037
    vertex 74.32978308655215 -0.2755735343367688 52.70570438727037
  endloop
endfacet
facet normal 2.1612153410235036e-16 0.1905908603646482 0.9816695594473037
  outer loop
    vertex 74.32978308655215 10.680325587420151 69.76800611577066
    vertex 69.32978308655214 13.027223081408941 68.98332505218285
    vertex 69.32978308655214 10.680325587420151 69.76800611577066
  endloop
endfacet
facet normal -5.170791139359454e-19 0.317093918746339 0.9483941410057795
  outer loop
    vertex 69.32978308655214 13.027223081408941 68.98332505218285
    vertex 74.32978308655215 10.680325587420151 69.76800611577066
    vertex 74.32978308655215 13.027223081408941 68.98332505218285
  endloop
endfacet
facet normal 1.5340768307023393e-16 0.9659258262890682 0.2588190451025216
  outer loop
    vertex 69.32978308655214 -1.0894146392664708 54.67049062040836
    vertex 74.32978308655215 -0.2755735343367688 52.70570438727037
    vertex 69.32978308655214 -0.2755735343367688 52.70570438727037
  endloop
endfacet
facet normal 2.519973234744627e-16 0.8660254037844386 0.5000000000000003
  outer loop
    vertex 74.32978308655215 -0.2755735343367688 52.70570438727037
    vertex 69.32978308655214 -1.0894146392664708 54.67049062040836
    vertex 74.32978308655215 -1.0894146392664708 54.67049062040836
  endloop
endfacet
facet normal -4.011176241092797e-16 0.2588190451025227 -0.9659258262890679
  outer loop
    vertex 74.32978308655215 4.671047125321912 64.64790307173332
    vertex 69.32978308655214 2.706260892183924 63.83406196680362
    vertex 69.32978308655214 4.671047125321912 64.64790307173332
  endloop
endfacet
facet normal -3.4774504246323626e-16 0.49999999999999967 -0.8660254037844389
  outer loop
    vertex 69.32978308655214 2.706260892183924 63.83406196680362
    vertex 74.32978308655215 4.671047125321912 64.64790307173332
    vertex 74.32978308655215 2.706260892183924 63.83406196680362
  endloop
endfacet
facet normal -1.1375861466482646e-18 0.446396668124229 -0.8948351885613277
  outer loop
    vertex 74.32978308655215 13.027223081408941 43.558265328782554
    vertex 69.32978308655214 12.536127807050438 43.313277986970874
    vertex 69.32978308655214 13.027223081408941 43.558265328782554
  endloop
endfacet
facet normal -2.0719446022817807e-16 0.32577825291873 -0.9454462067855687
  outer loop
    vertex 69.32978308655214 12.536127807050438 43.313277986970874
    vertex 74.32978308655215 13.027223081408941 43.558265328782554
    vertex 74.32978308655214 12.536127807050438 43.313277986970874
  endloop
endfacet
facet normal 0.0 -1.0 0.0
  outer loop
    vertex 96.75489797397 38.01022832021804 65.514108
    vertex 46.75489797397001 38.01022832021804 0.0
    vertex 96.75489797397 38.01022832021804 0.0
  endloop
endfacet
facet normal 0.0 -1.0 0.0
  outer loop
    vertex 46.75489797397001 38.01022832021804 0.0
    vertex 96.75489797397 38.01022832021804 65.514108
    vertex 46.75489797397001 38.01022832021804 65.514108
  endloop
endfacet
facet normal 0.0 1.0 0.0
  outer loop
    vertex 46.7566749579276 18.02722308140894 65.514108
    vertex 96.7566749579276 18.02722308140894 40.50205041383384
    vertex 46.7566749579276 18.02722308140894 40.50205041383384
  endloop
endfacet
facet normal 0.0 1.0 0.0
  outer loop
    vertex 96.7566749579276 18.02722308140894 40.50205041383384
    vertex 46.7566749579276 18.02722308140894 65.514108
    vertex 96.75489797397 18.02722308140894 65.514108
  endloop
endfacet
facet normal 0.0 0.0 -1.0
  outer loop
    vertex 96.75489797397 38.01022832021804 65.514108
    vertex 46.7566749579276 18.02722308140894 65.514108
    vertex 46.75489797397001 38.01022832021804 65.514108
  endloop
endfacet
facet normal 0.0 0.0 -1.0
  outer loop
    vertex 46.7566749579276 18.02722308140894 65.514108
    vertex 96.75489797397 38.01022832021804 65.514108
    vertex 96.75489797397 18.02722308140894 65.514108
  endloop
endfacet
endsolid DrawOpenerV2Print
